<mxfile host="Electron" agent="Mozilla/5.0 (Windows NT 10.0; Win64; x64) AppleWebKit/537.36 (KHTML, like Gecko) draw.io/28.1.2 Chrome/138.0.7204.243 Electron/37.4.0 Safari/537.36" version="28.1.2">
  <diagram name="Pagina-1" id="MN7WsSKvXLgIGYer2BLl">
    <mxGraphModel dx="485" dy="339" grid="1" gridSize="10" guides="1" tooltips="1" connect="1" arrows="1" fold="1" page="1" pageScale="1" pageWidth="827" pageHeight="1169" math="1" shadow="0">
      <root>
        <mxCell id="0" />
        <mxCell id="1" parent="0" />
        <mxCell id="ddl-roebjKmBMkPWHnF6-1" value="" style="ellipse;whiteSpace=wrap;html=1;sketch=1;curveFitting=1;jiggle=2;fillColor=none;fontColor=#ffffff;strokeColor=#006EAF;" parent="1" vertex="1">
          <mxGeometry x="371" y="310" width="10" height="10" as="geometry" />
        </mxCell>
        <mxCell id="yOI8t6S9mLHXuP7FHItO-1" value="" style="ellipse;whiteSpace=wrap;html=1;sketch=1;curveFitting=1;jiggle=2;fillColor=none;fontColor=#ffffff;strokeColor=#006EAF;" vertex="1" parent="1">
          <mxGeometry x="371" y="340" width="10" height="10" as="geometry" />
        </mxCell>
        <mxCell id="yOI8t6S9mLHXuP7FHItO-2" value="" style="curved=1;endArrow=classic;html=1;rounded=0;exitX=0;exitY=1;exitDx=0;exitDy=0;entryX=0;entryY=0;entryDx=0;entryDy=0;endFill=1;sketch=1;curveFitting=1;jiggle=2;" edge="1" parent="1" source="ddl-roebjKmBMkPWHnF6-1" target="yOI8t6S9mLHXuP7FHItO-1">
          <mxGeometry width="50" height="50" relative="1" as="geometry">
            <mxPoint x="371" y="370" as="sourcePoint" />
            <mxPoint x="421" y="320" as="targetPoint" />
            <Array as="points">
              <mxPoint x="351" y="330" />
            </Array>
          </mxGeometry>
        </mxCell>
        <mxCell id="yOI8t6S9mLHXuP7FHItO-4" value="" style="ellipse;whiteSpace=wrap;html=1;sketch=1;curveFitting=1;jiggle=2;fillColor=none;fontColor=#ffffff;strokeColor=#006EAF;" vertex="1" parent="1">
          <mxGeometry x="371" y="370" width="10" height="10" as="geometry" />
        </mxCell>
        <mxCell id="yOI8t6S9mLHXuP7FHItO-6" value="" style="ellipse;whiteSpace=wrap;html=1;sketch=1;curveFitting=1;jiggle=2;fillColor=none;fontColor=#ffffff;strokeColor=#006EAF;" vertex="1" parent="1">
          <mxGeometry x="371" y="450" width="10" height="10" as="geometry" />
        </mxCell>
        <mxCell id="yOI8t6S9mLHXuP7FHItO-7" value="" style="ellipse;whiteSpace=wrap;html=1;sketch=1;curveFitting=1;jiggle=2;fillColor=none;fontColor=#ffffff;strokeColor=#006EAF;" vertex="1" parent="1">
          <mxGeometry x="371" y="400" width="10" height="10" as="geometry" />
        </mxCell>
        <mxCell id="yOI8t6S9mLHXuP7FHItO-8" value="" style="curved=1;endArrow=classic;html=1;rounded=0;entryX=0;entryY=0;entryDx=0;entryDy=0;endFill=1;sketch=1;curveFitting=1;jiggle=2;exitX=0;exitY=1;exitDx=0;exitDy=0;" edge="1" parent="1" source="yOI8t6S9mLHXuP7FHItO-1" target="yOI8t6S9mLHXuP7FHItO-4">
          <mxGeometry width="50" height="50" relative="1" as="geometry">
            <mxPoint x="371" y="360" as="sourcePoint" />
            <mxPoint x="371" y="372" as="targetPoint" />
            <Array as="points">
              <mxPoint x="351" y="360" />
            </Array>
          </mxGeometry>
        </mxCell>
        <mxCell id="yOI8t6S9mLHXuP7FHItO-9" value="" style="curved=1;endArrow=classic;html=1;rounded=0;entryX=0;entryY=0;entryDx=0;entryDy=0;endFill=1;sketch=1;curveFitting=1;jiggle=2;exitX=0;exitY=1;exitDx=0;exitDy=0;" edge="1" parent="1" source="yOI8t6S9mLHXuP7FHItO-4" target="yOI8t6S9mLHXuP7FHItO-7">
          <mxGeometry width="50" height="50" relative="1" as="geometry">
            <mxPoint x="382" y="370" as="sourcePoint" />
            <mxPoint x="382" y="392" as="targetPoint" />
            <Array as="points">
              <mxPoint x="351" y="390" />
            </Array>
          </mxGeometry>
        </mxCell>
        <mxCell id="yOI8t6S9mLHXuP7FHItO-13" value="" style="curved=1;endArrow=classic;html=1;rounded=0;endFill=1;sketch=1;curveFitting=1;jiggle=2;exitX=0;exitY=0.5;exitDx=0;exitDy=0;" edge="1" parent="1" source="yOI8t6S9mLHXuP7FHItO-6">
          <mxGeometry width="50" height="50" relative="1" as="geometry">
            <mxPoint x="371" y="460" as="sourcePoint" />
            <mxPoint x="391" y="470" as="targetPoint" />
            <Array as="points">
              <mxPoint x="350" y="471" />
            </Array>
          </mxGeometry>
        </mxCell>
        <mxCell id="yOI8t6S9mLHXuP7FHItO-14" value="&lt;font face=&quot;Comic Sans MS&quot;&gt;. . . . .&lt;/font&gt;" style="text;html=1;align=center;verticalAlign=middle;whiteSpace=wrap;rounded=0;rotation=90;" vertex="1" parent="1">
          <mxGeometry x="356" y="420" width="50" height="20" as="geometry" />
        </mxCell>
        <mxCell id="yOI8t6S9mLHXuP7FHItO-16" value="" style="ellipse;whiteSpace=wrap;html=1;sketch=1;curveFitting=1;jiggle=2;fillColor=none;fontColor=#ffffff;strokeColor=#006EAF;" vertex="1" parent="1">
          <mxGeometry x="511" y="310" width="10" height="10" as="geometry" />
        </mxCell>
        <mxCell id="yOI8t6S9mLHXuP7FHItO-26" value="&lt;font style=&quot;font-size: 8px;&quot; face=&quot;Comic Sans MS&quot;&gt;Accept/&lt;/font&gt;&lt;span style=&quot;font-family: &amp;quot;Comic Sans MS&amp;quot;; font-size: 8px;&quot;&gt;Reject&lt;/span&gt;" style="text;html=1;align=center;verticalAlign=middle;whiteSpace=wrap;rounded=0;" vertex="1" parent="1">
          <mxGeometry x="391" y="460" width="60" height="20" as="geometry" />
        </mxCell>
        <mxCell id="yOI8t6S9mLHXuP7FHItO-28" value="" style="curved=1;endArrow=classic;html=1;rounded=0;endFill=1;sketch=1;curveFitting=1;jiggle=2;exitX=1;exitY=1;exitDx=0;exitDy=0;entryX=0.5;entryY=0;entryDx=0;entryDy=0;" edge="1" parent="1" source="yOI8t6S9mLHXuP7FHItO-16" target="yOI8t6S9mLHXuP7FHItO-29">
          <mxGeometry width="50" height="50" relative="1" as="geometry">
            <mxPoint x="586" y="329" as="sourcePoint" />
            <mxPoint x="550" y="307.7235772357724" as="targetPoint" />
          </mxGeometry>
        </mxCell>
        <mxCell id="yOI8t6S9mLHXuP7FHItO-29" value="" style="ellipse;whiteSpace=wrap;html=1;sketch=1;curveFitting=1;jiggle=2;fillColor=none;fontColor=#ffffff;strokeColor=#006EAF;" vertex="1" parent="1">
          <mxGeometry x="530" y="330" width="10" height="10" as="geometry" />
        </mxCell>
        <mxCell id="yOI8t6S9mLHXuP7FHItO-31" value="" style="ellipse;whiteSpace=wrap;html=1;sketch=1;curveFitting=1;jiggle=2;fillColor=none;fontColor=#ffffff;strokeColor=#006EAF;" vertex="1" parent="1">
          <mxGeometry x="490" y="330" width="10" height="10" as="geometry" />
        </mxCell>
        <mxCell id="yOI8t6S9mLHXuP7FHItO-32" value="" style="curved=1;endArrow=classic;html=1;rounded=0;endFill=1;sketch=1;curveFitting=1;jiggle=2;exitX=0;exitY=1;exitDx=0;exitDy=0;entryX=1;entryY=0;entryDx=0;entryDy=0;" edge="1" parent="1" source="yOI8t6S9mLHXuP7FHItO-16" target="yOI8t6S9mLHXuP7FHItO-31">
          <mxGeometry width="50" height="50" relative="1" as="geometry">
            <mxPoint x="520" y="320" as="sourcePoint" />
            <mxPoint x="535" y="331" as="targetPoint" />
          </mxGeometry>
        </mxCell>
        <mxCell id="yOI8t6S9mLHXuP7FHItO-33" value="" style="curved=1;endArrow=classic;html=1;rounded=0;endFill=1;sketch=1;curveFitting=1;jiggle=2;exitX=0;exitY=1;exitDx=0;exitDy=0;" edge="1" parent="1">
          <mxGeometry width="50" height="50" relative="1" as="geometry">
            <mxPoint x="490" y="340" as="sourcePoint" />
            <mxPoint x="470" y="360" as="targetPoint" />
          </mxGeometry>
        </mxCell>
        <mxCell id="yOI8t6S9mLHXuP7FHItO-34" value="" style="curved=1;endArrow=classic;html=1;rounded=0;endFill=1;sketch=1;curveFitting=1;jiggle=2;exitX=0.5;exitY=1;exitDx=0;exitDy=0;" edge="1" parent="1" source="yOI8t6S9mLHXuP7FHItO-31">
          <mxGeometry width="50" height="50" relative="1" as="geometry">
            <mxPoint x="503" y="340" as="sourcePoint" />
            <mxPoint x="490" y="360" as="targetPoint" />
          </mxGeometry>
        </mxCell>
        <mxCell id="yOI8t6S9mLHXuP7FHItO-35" value="" style="curved=1;endArrow=classic;html=1;rounded=0;endFill=1;sketch=1;curveFitting=1;jiggle=2;exitX=1;exitY=1;exitDx=0;exitDy=0;" edge="1" parent="1" source="yOI8t6S9mLHXuP7FHItO-31">
          <mxGeometry width="50" height="50" relative="1" as="geometry">
            <mxPoint x="503" y="340" as="sourcePoint" />
            <mxPoint x="510" y="360" as="targetPoint" />
          </mxGeometry>
        </mxCell>
        <mxCell id="yOI8t6S9mLHXuP7FHItO-36" value="" style="ellipse;whiteSpace=wrap;html=1;sketch=1;curveFitting=1;jiggle=2;fillColor=none;fontColor=#ffffff;strokeColor=#006EAF;" vertex="1" parent="1">
          <mxGeometry x="520" y="370" width="10" height="10" as="geometry" />
        </mxCell>
        <mxCell id="yOI8t6S9mLHXuP7FHItO-37" value="" style="curved=1;endArrow=classic;html=1;rounded=0;endFill=1;sketch=1;curveFitting=1;jiggle=2;exitX=0.808;exitY=0.732;exitDx=0;exitDy=0;exitPerimeter=0;" edge="1" parent="1" source="yOI8t6S9mLHXuP7FHItO-29">
          <mxGeometry width="50" height="50" relative="1" as="geometry">
            <mxPoint x="540" y="344.5" as="sourcePoint" />
            <mxPoint x="560" y="360" as="targetPoint" />
          </mxGeometry>
        </mxCell>
        <mxCell id="yOI8t6S9mLHXuP7FHItO-41" value="" style="curved=1;endArrow=classic;html=1;rounded=0;endFill=1;sketch=1;curveFitting=1;jiggle=2;exitX=0;exitY=1;exitDx=0;exitDy=0;entryX=0.5;entryY=0;entryDx=0;entryDy=0;" edge="1" parent="1" source="yOI8t6S9mLHXuP7FHItO-29" target="yOI8t6S9mLHXuP7FHItO-36">
          <mxGeometry width="50" height="50" relative="1" as="geometry">
            <mxPoint x="510" y="360" as="sourcePoint" />
            <mxPoint x="532" y="383" as="targetPoint" />
          </mxGeometry>
        </mxCell>
        <mxCell id="yOI8t6S9mLHXuP7FHItO-42" value="" style="ellipse;whiteSpace=wrap;html=1;sketch=1;curveFitting=1;jiggle=2;fillColor=none;fontColor=#ffffff;strokeColor=#006EAF;" vertex="1" parent="1">
          <mxGeometry x="501" y="390" width="10" height="10" as="geometry" />
        </mxCell>
        <mxCell id="yOI8t6S9mLHXuP7FHItO-44" value="&lt;span style=&quot;color: rgb(255, 255, 255); font-family: &amp;quot;Comic Sans MS&amp;quot;; font-size: 8px; font-style: normal; font-variant-ligatures: normal; font-variant-caps: normal; font-weight: 400; letter-spacing: normal; orphans: 2; text-align: center; text-indent: 0px; text-transform: none; widows: 2; word-spacing: 0px; -webkit-text-stroke-width: 0px; white-space: normal; text-decoration-thickness: initial; text-decoration-style: initial; text-decoration-color: initial; float: none; display: inline !important;&quot;&gt;Reject&lt;/span&gt;" style="text;whiteSpace=wrap;html=1;" vertex="1" parent="1">
          <mxGeometry x="560" y="350" width="40" height="20" as="geometry" />
        </mxCell>
        <mxCell id="yOI8t6S9mLHXuP7FHItO-45" value="" style="curved=1;endArrow=classic;html=1;rounded=0;endFill=1;sketch=1;curveFitting=1;jiggle=2;exitX=0;exitY=1;exitDx=0;exitDy=0;entryX=1;entryY=0;entryDx=0;entryDy=0;" edge="1" parent="1" source="yOI8t6S9mLHXuP7FHItO-36" target="yOI8t6S9mLHXuP7FHItO-42">
          <mxGeometry width="50" height="50" relative="1" as="geometry">
            <mxPoint x="520" y="380" as="sourcePoint" />
            <mxPoint x="514" y="411" as="targetPoint" />
          </mxGeometry>
        </mxCell>
        <mxCell id="yOI8t6S9mLHXuP7FHItO-46" value="" style="curved=1;endArrow=classic;html=1;rounded=0;endFill=1;sketch=1;curveFitting=1;jiggle=2;exitX=1;exitY=1;exitDx=0;exitDy=0;entryX=0;entryY=0;entryDx=0;entryDy=0;" edge="1" parent="1" source="yOI8t6S9mLHXuP7FHItO-36">
          <mxGeometry width="50" height="50" relative="1" as="geometry">
            <mxPoint x="521" y="380" as="sourcePoint" />
            <mxPoint x="541.4644660940672" y="391.46446609406723" as="targetPoint" />
          </mxGeometry>
        </mxCell>
        <mxCell id="yOI8t6S9mLHXuP7FHItO-48" value="" style="curved=1;endArrow=classic;html=1;rounded=0;endFill=1;sketch=1;curveFitting=1;jiggle=2;exitX=0;exitY=1;exitDx=0;exitDy=0;entryX=1;entryY=0;entryDx=0;entryDy=0;" edge="1" parent="1" source="yOI8t6S9mLHXuP7FHItO-42">
          <mxGeometry width="50" height="50" relative="1" as="geometry">
            <mxPoint x="501" y="398" as="sourcePoint" />
            <mxPoint x="490" y="410" as="targetPoint" />
          </mxGeometry>
        </mxCell>
        <mxCell id="yOI8t6S9mLHXuP7FHItO-49" value="" style="curved=1;endArrow=classic;html=1;rounded=0;endFill=1;sketch=1;curveFitting=1;jiggle=2;exitX=0.5;exitY=1;exitDx=0;exitDy=0;" edge="1" parent="1" source="yOI8t6S9mLHXuP7FHItO-42">
          <mxGeometry width="50" height="50" relative="1" as="geometry">
            <mxPoint x="502" y="400" as="sourcePoint" />
            <mxPoint x="506" y="420" as="targetPoint" />
          </mxGeometry>
        </mxCell>
        <mxCell id="yOI8t6S9mLHXuP7FHItO-50" value="" style="curved=1;endArrow=classic;html=1;rounded=0;endFill=1;sketch=1;curveFitting=1;jiggle=2;exitX=1;exitY=1;exitDx=0;exitDy=0;" edge="1" parent="1" source="yOI8t6S9mLHXuP7FHItO-42">
          <mxGeometry width="50" height="50" relative="1" as="geometry">
            <mxPoint x="520" y="400" as="sourcePoint" />
            <mxPoint x="520" y="410" as="targetPoint" />
          </mxGeometry>
        </mxCell>
        <mxCell id="yOI8t6S9mLHXuP7FHItO-51" value="&lt;font face=&quot;Comic Sans MS&quot;&gt;. . . .&amp;nbsp;&lt;/font&gt;" style="text;html=1;align=center;verticalAlign=middle;whiteSpace=wrap;rounded=0;rotation=90;" vertex="1" parent="1">
          <mxGeometry x="485.25" y="423.75" width="49" height="22.5" as="geometry" />
        </mxCell>
        <mxCell id="yOI8t6S9mLHXuP7FHItO-52" value="" style="ellipse;whiteSpace=wrap;html=1;sketch=1;curveFitting=1;jiggle=2;fillColor=none;fontColor=#ffffff;strokeColor=#006EAF;" vertex="1" parent="1">
          <mxGeometry x="500" y="450" width="10" height="10" as="geometry" />
        </mxCell>
        <mxCell id="yOI8t6S9mLHXuP7FHItO-53" value="" style="curved=1;endArrow=classic;html=1;rounded=0;endFill=1;sketch=1;curveFitting=1;jiggle=2;exitX=0;exitY=0.5;exitDx=0;exitDy=0;" edge="1" parent="1" source="yOI8t6S9mLHXuP7FHItO-52">
          <mxGeometry width="50" height="50" relative="1" as="geometry">
            <mxPoint x="501" y="460" as="sourcePoint" />
            <mxPoint x="520" y="470" as="targetPoint" />
            <Array as="points">
              <mxPoint x="480" y="470" />
            </Array>
          </mxGeometry>
        </mxCell>
        <mxCell id="yOI8t6S9mLHXuP7FHItO-54" value="&lt;font style=&quot;font-size: 8px;&quot; face=&quot;Comic Sans MS&quot;&gt;Accept/&lt;/font&gt;&lt;span style=&quot;font-family: &amp;quot;Comic Sans MS&amp;quot;; font-size: 8px;&quot;&gt;Reject&lt;/span&gt;" style="text;html=1;align=center;verticalAlign=middle;whiteSpace=wrap;rounded=0;" vertex="1" parent="1">
          <mxGeometry x="520" y="460" width="60" height="20" as="geometry" />
        </mxCell>
        <mxCell id="yOI8t6S9mLHXuP7FHItO-55" value="&lt;span style=&quot;color: rgb(255, 255, 255); font-family: &amp;quot;Comic Sans MS&amp;quot;; font-size: 8px; font-style: normal; font-variant-ligatures: normal; font-variant-caps: normal; font-weight: 400; letter-spacing: normal; orphans: 2; text-align: center; text-indent: 0px; text-transform: none; widows: 2; word-spacing: 0px; -webkit-text-stroke-width: 0px; white-space: normal; text-decoration-thickness: initial; text-decoration-style: initial; text-decoration-color: initial; float: none; display: inline !important;&quot;&gt;Accept&lt;/span&gt;" style="text;whiteSpace=wrap;html=1;" vertex="1" parent="1">
          <mxGeometry x="540" y="380" width="40" height="20" as="geometry" />
        </mxCell>
        <mxCell id="yOI8t6S9mLHXuP7FHItO-56" value="&lt;font face=&quot;Comic Sans MS&quot;&gt;&lt;span style=&quot;font-size: 8px;&quot;&gt;Computazione Deterministica&lt;/span&gt;&lt;/font&gt;" style="text;html=1;align=center;verticalAlign=middle;whiteSpace=wrap;rounded=0;fontColor=#FF0000;rotation=0;" vertex="1" parent="1">
          <mxGeometry x="392" y="420" width="59" height="20" as="geometry" />
        </mxCell>
        <mxCell id="yOI8t6S9mLHXuP7FHItO-57" value="" style="endArrow=none;html=1;rounded=0;" edge="1" parent="1">
          <mxGeometry width="50" height="50" relative="1" as="geometry">
            <mxPoint x="460" y="480" as="sourcePoint" />
            <mxPoint x="460" y="300" as="targetPoint" />
          </mxGeometry>
        </mxCell>
        <mxCell id="yOI8t6S9mLHXuP7FHItO-61" value="&lt;font face=&quot;Comic Sans MS&quot;&gt;&lt;span style=&quot;font-size: 8px;&quot;&gt;Computazione&amp;nbsp;&lt;/span&gt;&lt;/font&gt;&lt;div&gt;&lt;font face=&quot;Comic Sans MS&quot;&gt;&lt;span style=&quot;font-size: 8px;&quot;&gt;Non-Deterministica&lt;/span&gt;&lt;/font&gt;&lt;/div&gt;" style="text;html=1;align=center;verticalAlign=middle;whiteSpace=wrap;rounded=0;fontColor=#FF0000;rotation=0;" vertex="1" parent="1">
          <mxGeometry x="521" y="420" width="80" height="20" as="geometry" />
        </mxCell>
      </root>
    </mxGraphModel>
  </diagram>
</mxfile>
